# xmcd CD database file
#
# Track frame offsets:
#	150
#	8735
#	22267
#	40422
#	43045
#	59060
#	71585
#	75975
#	93637
#	102797
#	118592
#	128320
#	149760
#	156037
#	169242
#	171895
#	187970
#	194007
#	218897
#	223412
#
# Disc length: 3639 seconds
#
# Revision: 1
# Processed by: cddbd v1.5PL3 Copyright (c) Steve Scherf et al.
# Submitted via: CDex 1.40Release
#
DISCID=2a0e3514
DTITLE=中原小麦(桃井はるこ) - 中原小麦ファーストライブin日本中年館
DYEAR=2003
DGENRE=Vocal
TTITLE0=”Live Version”
TTITLE1=”マジで開演5分前”
TTITLE2=「愛のメディスン」
TTITLE3=MC?
TTITLE4=「ムギまるロック」
TTITLE5=「オトメの魔法でポンデ・ケ・ワ」
TTITLE6=”Just Like Magic”
TTITLE7=「はじめてのクリスマス」
TTITLE8=MC?
TTITLE9=「ジュラシック　パニック」
TTITLE10=MC?
TTITLE11=「Pasera」
TTITLE12=MC?
TTITLE13=「こむぎ気分でろっくんロール」
TTITLE14=MC?
TTITLE15=「あなたがだいきらい」
TTITLE16=”STAGE DOOR”
TTITLE17=「せつないジャボン玉」
TTITLE18=MC?
TTITLE19=「７．４．５^4(ﾁｨ･ｽｩ･ｳｳｳｳ)！」
EXTD=YEAR: 2003 ID3G: 28
EXTT0=
EXTT1=
EXTT2=
EXTT3=
EXTT4=
EXTT5=
EXTT6=
EXTT7=
EXTT8=
EXTT9=
EXTT10=
EXTT11=
EXTT12=
EXTT13=
EXTT14=
EXTT15=
EXTT16=
EXTT17=
EXTT18=
EXTT19=
PLAYORDER=
